{"accessors" : [{"bufferView" : 0, "byteOffset" : 0, "componentType" : 5123, "count" : 11520, "type" : "SCALAR", "max" : [9597], "min" : [0]}, {"bufferView" : 1, "byteOffset" : 0, "componentType" : 5126, "count" : 9598, "type" : "VEC3", "max" : [0.9834181070327759, 0.9834180474281311, 0.993212103843689], "min" : [-0.9834177494049072, -0.9834176301956177, -0.9853511452674866], "name" : "POSITION"}, {"bufferView" : 0, "byteOffset" : 23040, "componentType" : 5123, "count" : 2880, "type" : "SCALAR", "max" : [2390], "min" : [0]}, {"bufferView" : 2, "byteOffset" : 0, "componentType" : 5126, "count" : 2391, "type" : "VEC3", "max" : [0.08459672331809998, 0.08462237566709518, 3.3951072692871094], "min" : [-0.2497176229953766, -0.27816736698150635, 0.25949373841285706], "name" : "POSITION"}, {"bufferView" : 0, "byteOffset" : 28800, "componentType" : 5123, "count" : 2880, "type" : "SCALAR", "max" : [2390], "min" : [0]}, {"bufferView" : 3, "byteOffset" : 0, "componentType" : 5126, "count" : 2391, "type" : "VEC3", "max" : [0.08459673076868057, 0.08462237566709518, 3.3951072692871094], "min" : [-0.2497176229953766, -0.27816736698150635, 0.2594938278198242], "name" : "POSITION"}, {"bufferView" : 0, "byteOffset" : 34560, "componentType" : 5123, "count" : 2880, "type" : "SCALAR", "max" : [2390], "min" : [0]}, {"bufferView" : 4, "byteOffset" : 0, "componentType" : 5126, "count" : 2391, "type" : "VEC3", "max" : [0.08459673821926117, 0.08462236821651459, 3.3951072692871094], "min" : [-0.2497176229953766, -0.27816736698150635, 0.2594938278198242], "name" : "POSITION"}, {"bufferView" : 0, "byteOffset" : 40320, "componentType" : 5123, "count" : 70656, "type" : "SCALAR", "max" : [58846], "min" : [0]}, {"bufferView" : 5, "byteOffset" : 0, "componentType" : 5126, "count" : 58847, "type" : "VEC3", "max" : [1.3599799871444702, 1.3599799871444702, 2.3150994777679443], "min" : [-1.3599799871444702, -1.3599799871444702, 0], "name" : "POSITION"}], "asset" : {"generator" : "Aspose.3D 21.10", "version" : "2.0"}, "buffers" : [{"uri" : "data:application/octet-stream;base64,", "byteLength" : 1271448}], "bufferViews" : [{"buffer" : 0, "byteOffset" : 0, "byteLength" : 181632, "target" : 34963}, {"buffer" : 0, "byteOffset" : 181636, "byteLength" : 138240, "byteStride" : 12, "target" : 34962}, {"buffer" : 0, "byteOffset" : 319880, "byteLength" : 34560, "byteStride" : 12, "target" : 34962}, {"buffer" : 0, "byteOffset" : 354444, "byteLength" : 34560, "byteStride" : 12, "target" : 34962}, {"buffer" : 0, "byteOffset" : 389008, "byteLength" : 34560, "byteStride" : 12, "target" : 34962}, {"buffer" : 0, "byteOffset" : 423572, "byteLength" : 847872, "byteStride" : 12, "target" : 34962}], "materials" : [{"name" : "", "pbrMetallicRoughness" : {"baseColorFactor" : [0.36470588235294116, 0.30196078431372547, 0.1450980392156863, 1], "metallicFactor" : 0, "roughnessFactor" : 0}, "emissiveFactor" : [0, 0, 0], "alphaMode" : "OPAQUE", "doubleSided" : false}, {"name" : "", "pbrMetallicRoughness" : {"baseColorFactor" : [0.043137254901960784, 0.12941176470588237, 0.050980392156862744, 1], "metallicFactor" : 0, "roughnessFactor" : 0}, "emissiveFactor" : [0, 0, 0], "alphaMode" : "OPAQUE", "doubleSided" : false}, {"name" : "", "pbrMetallicRoughness" : {"baseColorFactor" : [0.043137254901960784, 0.12941176470588237, 0.050980392156862744, 1], "metallicFactor" : 0, "roughnessFactor" : 0}, "emissiveFactor" : [0, 0, 0], "alphaMode" : "OPAQUE", "doubleSided" : false}, {"name" : "", "pbrMetallicRoughness" : {"baseColorFactor" : [0.043137254901960784, 0.12941176470588237, 0.050980392156862744, 1], "metallicFactor" : 0, "roughnessFactor" : 0}, "emissiveFactor" : [0, 0, 0], "alphaMode" : "OPAQUE", "doubleSided" : false}, {"name" : "", "pbrMetallicRoughness" : {"baseColorFactor" : [1, 1, 1, 1], "metallicFactor" : 0, "roughnessFactor" : 0}, "emissiveFactor" : [0, 0, 0], "alphaMode" : "OPAQUE", "doubleSided" : false}], "meshes" : [{"primitives" : [{"attributes" : {"POSITION" : 1}, "indices" : 0, "material" : 0, "mode" : 4}], "name" : "Sphere"}, {"primitives" : [{"attributes" : {"POSITION" : 3}, "indices" : 2, "material" : 1, "mode" : 4}], "name" : "Plane.004"}, {"primitives" : [{"attributes" : {"POSITION" : 5}, "indices" : 4, "material" : 2, "mode" : 4}], "name" : "Plane.003"}, {"primitives" : [{"attributes" : {"POSITION" : 7}, "indices" : 6, "material" : 3, "mode" : 4}], "name" : "Plane.002"}, {"primitives" : [{"attributes" : {"POSITION" : 9}, "indices" : 8, "material" : 4, "mode" : 4}], "name" : "Plane.001"}], "nodes" : [{"mesh" : 0, "name" : "Sphere"}, {"mesh" : 1, "name" : "Plane.004"}, {"mesh" : 2, "name" : "Plane.003"}, {"mesh" : 3, "name" : "Plane.002"}, {"mesh" : 4, "name" : "Plane.001"}], "scene" : 0, "scenes" : [{"nodes" : [0, 1, 2, 3, 4]}]}